#!OML:ASF I:\golf\golf\golf 2\Subject 1\2002-09-07\Subject1.ASF
:FULLY-SPECIFIED
:DEGREES
333
root 2.00296 10.2358 -3.52376 14.0299 -5.41375 -5.08072
lowerback 41.0414 8.64026 3.6531
upperback 15.7972 11.9044 6.66336
thorax -2.58185 5.46389 0.878909
lowerneck -9.10865 -6.97891 1.07687
upperneck 24.2522 -7.41222 -9.50304
head 8.60643 -4.1923 -4.09412
rclavicle 7.95139e-014 1.59028e-014
rhumerus 23.8954 -1.67016 -74.6836
rradius 38.5156
rwrist -12.8493
rhand -44.2829 26.3472
rfingers 7.12502
rthumb -17.0935 -2.92081
lclavicle 7.95139e-014 1.59028e-014
lhumerus -27.494 -47.1142 91.8832
lradius 104.636
lwrist -12.4988
lhand -43.2162 9.90838
lfingers 7.12502
lthumb -16.0665 39.2623
rfemur -93.8466 -59.3825 40.3395
rtibia 138.396
rfoot -27.8454 14.7018
rtoes -13.807
lfemur -100.98 16.3645 -25.1957
ltibia 128.267
lfoot -27.1426 -12.098
ltoes -13.8022
334
root 1.99874 10.2454 -3.5187 13.9106 -5.40057 -5.11994
lowerback 41.2743 8.66651 3.67667
upperback 15.7744 11.9528 6.67991
thorax -2.67434 5.48041 0.84639
lowerneck -9.11993 -6.98488 1.08641
upperneck 24.3136 -7.41426 -9.518
head 8.62816 -4.19359 -4.10446
rclavicle -1.27222e-014 -1.43125e-014
rhumerus 23.8591 -1.65328 -74.6485
rradius 38.4966
rwrist -12.8661
rhand -44.2753 26.0243
rfingers 7.12502
rthumb -17.0862 -3.24433
lclavicle -1.27222e-014 -1.43125e-014
lhumerus -27.53 -47.264 91.9464
lradius 104.5
lwrist -12.6377
lhand -43.0989 10.2526
lfingers 7.12502
lthumb -15.9536 39.6156
rfemur -93.3552 -59.3473 40.0419
rtibia 138.302
rfoot -27.9227 14.6547
rtoes -14.1067
lfemur -100.749 16.5383 -25.1239
ltibia 128.24
lfoot -27.2239 -12.2369
ltoes -13.5074
335
root 1.9941 10.2525 -3.51581 13.8465 -5.34891 -5.26391
lowerback 41.4258 8.64898 3.79616
upperback 15.7511 11.9826 6.70792
thorax -2.72891 5.4932 0.794062
lowerneck -8.95868 -6.99482 1.07667
upperneck 24.2213 -7.42922 -9.52625
head 8.56572 -4.19916 -4.09393
rclavicle -1.90833e-014 0
rhumerus 23.8101 -1.69152 -74.7187
rradius 38.3513
rwrist -12.4053
rhand -44.5983 26.2454
rfingers 7.12502
rthumb -17.397 -2.99605
lclavicle -1.90833e-014 0
lhumerus -27.5755 -47.3663 92.0098
lradius 104.367
lwrist -12.7812
lhand -43.1853 10.5605
lfingers 7.12502
lthumb -16.0368 39.9168
rfemur -92.9291 -59.1768 39.9159
rtibia 138.218
rfoot -27.9958 14.4878
rtoes -14.0974
lfemur -100.612 16.6936 -24.9149
ltibia 128.214
lfoot -27.323 -12.3923
ltoes -13.5899
336
root 1.98983 10.2617 -3.50483 13.7717 -5.28106 -5.40154
lowerback 41.459 8.63787 3.94359
upperback 15.7829 12.0239 6.74886
thorax -2.68597 5.51767 0.75293
lowerneck -8.71821 -7.03454 1.05016
upperneck 24.029 -7.50416 -9.46284
head 8.45523 -4.22551 -4.05253
rclavicle 0 -1.27222e-014
rhumerus 23.7775 -1.6981 -74.6961
rradius 38.0615
rwrist -11.8022
rhand -45.1734 27.1808
rfingers 7.12502
rthumb -17.9505 -2.0108
lclavicle 0 -1.27222e-014
lhumerus -27.6408 -47.4842 92.1078
lradius 104.283
lwrist -12.9443
lhand -43.406 10.3578
lfingers 7.12502
lthumb -16.2493 39.6969
rfemur -92.4112 -59.218 39.7436
rtibia 138.127
rfoot -28.1733 14.4078
rtoes -13.832
lfemur -100.42 16.859 -24.6914
ltibia 128.185
lfoot -27.344 -12.7306
ltoes -13.1478
337
root 1.9866 10.272 -3.48839 13.6726 -5.22127 -5.42414
lowerback 41.4733 8.66021 4.00036
upperback 15.8261 12.0715 6.78363
thorax -2.64003 5.54331 0.748012
lowerneck -8.53252 -7.08791 1.01123
upperneck 23.9181 -7.60338 -9.33963
head 8.38497 -4.25909 -3.9981
rclavicle -5.40694e-014 1.11319e-014
rhumerus 23.7006 -1.67434 -74.5696
rradius 38.0113
rwrist -11.6851
rhand -45.447 27.5227
rfingers 7.12502
rthumb -18.2137 -1.64458
lclavicle -5.40694e-014 1.11319e-014
lhumerus -27.7396 -47.6624 92.2345
lradius 104.241
lwrist -13.1037
lhand -43.5171 10.1064
lfingers 7.12502
lthumb -16.3563 39.4367
rfemur -91.8693 -59.4797 39.4251
rtibia 138.034
rfoot -28.3622 14.5476
rtoes -13.5374
lfemur -100.119 16.943 -24.5899
ltibia 128.123
lfoot -27.3267 -13.0188
ltoes -12.5581
338
root 1.98541 10.2738 -3.47874 13.7406 -5.14904 -5.39686
lowerback 41.3643 8.6592 4.01149
upperback 15.8179 12.0736 6.77666
thorax -2.61434 5.54863 0.742672
lowerneck -8.50365 -7.11464 0.974909
upperneck 24.0076 -7.64582 -9.25389
head 8.41348 -4.27216 -3.97005
rclavicle 3.18055e-015 -1.59028e-014
rhumerus 23.5895 -1.75835 -74.5574
rradius 38.3656
rwrist -11.9829
rhand -45.094 26.5036
rfingers 7.12502
rthumb -17.8741 -2.69504
lclavicle 3.18055e-015 -1.59028e-014
lhumerus -27.7702 -47.7542 92.2497
lradius 104.243
lwrist -13.1699
lhand -43.3926 10.0885
lfingers 7.12502
lthumb -16.2364 39.4286
rfemur -91.914 -59.4932 39.4111
rtibia 138.025
rfoot -28.3443 14.6016
rtoes -13.0076
lfemur -100.151 16.8368 -24.626
ltibia 128.097
lfoot -27.3172 -12.9439
ltoes -12.6484
339
root 1.9854 10.2718 -3.47019 13.882 -5.08708 -5.31648
lowerback 41.1467 8.65722 3.97329
upperback 15.8146 12.0517 6.74529
thorax -2.55489 5.54472 0.753405
lowerneck -8.48663 -7.13279 0.98499
upperneck 24.0725 -7.66398 -9.26964
head 8.42996 -4.28024 -3.9806
rclavicle -4.77083e-014 1.43125e-014
rhumerus 23.5095 -1.88217 -74.578
rradius 39.059
rwrist -12.713
rhand -44.4157 24.2295
rfingers 7.12502
rthumb -17.2213 -5.02743
lclavicle -4.77083e-014 1.43125e-014
lhumerus -27.729 -47.6763 92.188
lradius 104.307
lwrist -13.1702
lhand -43.2827 10.1141
lfingers 7.12502
lthumb -16.1306 39.4628
rfemur -92.1925 -59.4539 39.4675
rtibia 138.055
rfoot -28.2468 14.6493
rtoes -12.2806
lfemur -100.318 16.6564 -24.7607
ltibia 128.111
lfoot -27.3774 -12.6186
ltoes -13.1705
340
root 1.98295 10.278 -3.458 13.8842 -5.07714 -5.17617
lowerback 41.0487 8.6951 3.84033
upperback 15.8421 12.0443 6.7189
thorax -2.51403 5.54133 0.801826
lowerneck -8.33341 -7.14568 0.990199
upperneck 23.9904 -7.68889 -9.25913
head 8.37239 -4.28746 -3.96795
rclavicle -1.36764e-013 5.56597e-014
rhumerus 23.4631 -1.88511 -74.5443
rradius 39.1832
rwrist -12.7248
rhand -44.4337 23.7048
rfingers 7.12502
rthumb -17.2386 -5.55063
lclavicle -1.36764e-013 5.56597e-014
lhumerus -27.6471 -47.6118 92.1177
lradius 104.326
lwrist -13.1769
lhand -43.412 10.0428
lfingers 7.12502
lthumb -16.2551 39.3814
rfemur -92.0248 -59.6061 39.1685
rtibia 138.017
rfoot -28.2313 14.8813
rtoes -11.7317
lfemur -100.16 16.5888 -24.8972
ltibia 128.082
lfoot -27.5731 -12.3989
ltoes -13.7401
341
root 1.97972 10.284 -3.45085 13.8946 -5.04681 -5.11206
lowerback 41.0162 8.70168 3.75458
upperback 15.8453 12.0203 6.69845
thorax -2.51176 5.52861 0.832471
lowerneck -8.20658 -7.11935 0.973181
upperneck 23.9436 -7.66398 -9.20445
head 8.33808 -4.26987 -3.93644
rclavicle 9.54166e-014 1.11319e-014
rhumerus 23.5012 -1.82991 -74.5356
rradius 39.1326
rwrist -12.5471
rhand -44.5777 23.3309
rfingers 7.12502
rthumb -17.3773 -5.91227
lclavicle 9.54166e-014 1.11319e-014
lhumerus -27.6402 -47.6701 92.1324
lradius 104.253
lwrist -13.294
lhand -43.3511 10.0476
lfingers 7.12502
lthumb -16.1964 39.391
rfemur -91.8843 -59.6151 38.9817
rtibia 137.997
rfoot -28.2294 14.9216
rtoes -11.8288
lfemur -100.052 16.5508 -24.9455
ltibia 128.058
lfoot -27.7217 -12.2896
ltoes -14.3294
342
root 1.97715 10.2849 -3.44857 13.9797 -4.97095 -5.15869
lowerback 40.9944 8.68647 3.77427
upperback 15.8152 12.0126 6.70201
thorax -2.53622 5.52499 0.828132
lowerneck -8.10845 -7.09154 0.987691
upperneck 23.8903 -7.62894 -9.21405
head 8.30269 -4.25163 -3.93168
rclavicle 9.54166e-015 3.49861e-014
rhumerus 23.5685 -1.80383 -74.5029
rradius 39.0443
rwrist -12.2875
rhand -44.7517 23.0102
rfingers 7.12502
rthumb -17.5447 -6.21809
lclavicle 9.54166e-015 3.49861e-014
lhumerus -27.6815 -47.736 92.183
lradius 104.177
lwrist -13.4409
lhand -43.265 10.1806
lfingers 7.12502
lthumb -16.1135 39.5307
rfemur -91.9547 -59.419 39.0705
rtibia 138.021
rfoot -28.1788 14.7528
rtoes -12.1314
lfemur -100.142 16.5023 -24.9128
ltibia 128.073
lfoot -27.8161 -12.0748
ltoes -14.9802
343
root 1.97483 10.2858 -3.44513 14.0731 -4.90623 -5.15668
lowerback 40.9565 8.70805 3.78108
upperback 15.7863 12.0441 6.70652
thorax -2.55751 5.54033 0.818107
lowerneck -7.93711 -7.11709 1.03742
upperneck 23.7323 -7.67394 -9.24771
head 8.21072 -4.26851 -3.93777
rclavicle 3.18055e-014 -1.27222e-014
rhumerus 23.5616 -1.86517 -74.4131
rradius 39.0945
rwrist -12.1748
rhand -44.7717 22.5065
rfingers 7.12502
rthumb -17.564 -6.72009
lclavicle 3.18055e-014 -1.27222e-014
lhumerus -27.6824 -47.8676 92.1837
lradius 104.096
lwrist -13.533
lhand -43.3977 10.377
lfingers 7.12502
lthumb -16.2414 39.7167
rfemur -92.1303 -59.317 39.2013
rtibia 138.04
rfoot -28.0727 14.756
rtoes -12.1655
lfemur -100.254 16.4265 -24.9232
ltibia 128.076
lfoot -27.8271 -11.9798
ltoes -14.9641
344
root 1.97314 10.2908 -3.44032 14.1088 -4.84181 -5.12255
lowerback 40.9786 8.71813 3.7719
upperback 15.7553 12.0571 6.69712
thorax -2.59793 5.54561 0.803034
lowerneck -7.8315 -7.1473 1.11221
upperneck 23.6603 -7.71925 -9.30461
head 8.15751 -4.28662 -3.96298
rclavicle -1.27222e-014 -2.70347e-014
rhumerus 23.5837 -1.93504 -74.3997
rradius 39.081
rwrist -12.0936
rhand -44.8424 21.9549
rfingers 7.12502
rthumb -17.632 -7.26562
lclavicle -1.27222e-014 -2.70347e-014
lhumerus -27.7541 -47.9654 92.2402
lradius 104.025
lwrist -13.6657
lhand -43.425 10.4369
lfingers 7.12502
lthumb -16.2676 39.7745
rfemur -92.1498 -59.3234 39.208
rtibia 138.005
rfoot -27.9908 14.8637
rtoes -12.1578
lfemur -100.269 16.3118 -24.9226
ltibia 128.027
lfoot -27.7182 -12.112
ltoes -14.4743
345
root 1.97412 10.294 -3.43953 14.1987 -4.72597 -5.18833
lowerback 41.0091 8.68084 3.88199
upperback 15.691 12.0603 6.70094
thorax -2.65922 5.54886 0.745219
lowerneck -7.77562 -7.19414 1.16135
upperneck 23.7131 -7.77337 -9.36853
head 8.15591 -4.31188 -3.99555
rclavicle -5.725e-014 -3.33958e-014
rhumerus 23.6943 -2.0304 -74.4534
rradius 38.8454
rwrist -12.0601
rhand -44.9348 21.7635
rfingers 7.12502
rthumb -17.7209 -7.44902
lclavicle -5.725e-014 -3.33958e-014
lhumerus -27.9356 -48.0398 92.4076
lradius 103.971
lwrist -13.8627
lhand -43.3296 10.3724
lfingers 7.12502
lthumb -16.1758 39.7175
rfemur -92.2765 -59.1573 39.3762
rtibia 137.955
rfoot -27.8527 14.8118
rtoes -11.6567
lfemur -100.407 16.1496 -24.8442
ltibia 127.978
lfoot -27.5903 -12.1567
ltoes -14.3909
346
root 1.96781 10.3005 -3.43862 14.2873 -4.71115 -5.22547
lowerback 41.0317 8.76537 3.81967
upperback 15.644 12.1466 6.7336
thorax -2.73781 5.58264 0.769005
lowerneck -7.68479 -7.25913 1.13588
upperneck 23.7175 -7.86248 -9.33972
head 8.13809 -4.35021 -3.984
rclavicle -1.59028e-014 -3.33958e-014
rhumerus 23.7379 -2.20113 -74.5238
rradius 38.7028
rwrist -12.0639
rhand -44.8463 21.7458
rfingers 7.12502
rthumb -17.6357 -7.47437
lclavicle -1.59028e-014 -3.33958e-014
lhumerus -28.045 -48.1632 92.5213
lradius 103.919
lwrist -14.0183
lhand -43.3889 10.2673
lfingers 7.12502
lthumb -16.2329 39.6078
rfemur -92.3047 -58.8823 39.4454
rtibia 137.917
rfoot -27.7846 14.6917
rtoes -11.2743
lfemur -100.457 16.1775 -24.7931
ltibia 127.92
lfoot -27.5911 -12.1867
ltoes -14.3754
